<?xml version="1.0" encoding="UTF-8" standalone="no"?>
<!-- Created with Inkscape (http://www.inkscape.org/) -->

<svg
   xmlns:dc="http://purl.org/dc/elements/1.1/"
   xmlns:cc="http://creativecommons.org/ns#"
   xmlns:rdf="http://www.w3.org/1999/02/22-rdf-syntax-ns#"
   xmlns:svg="http://www.w3.org/2000/svg"
   xmlns="http://www.w3.org/2000/svg"
   xmlns:sodipodi="http://sodipodi.sourceforge.net/DTD/sodipodi-0.dtd"
   xmlns:inkscape="http://www.inkscape.org/namespaces/inkscape"
   width="22.577778mm"
   height="14.114863mm"
   viewBox="0 0 80 50.013295"
   id="svg7224"
   version="1.1"
   inkscape:version="0.91 r13725"
   sodipodi:docname="assinatura_digital4_inkscape2_undefined.svg"
   inkscape:export-filename="/home/luzfcb/projetos/opensource/luzfcb_djdocuments/src/djdocuments/static/luzfcb_djdocuments/img/es/undefined.png"
   inkscape:export-xdpi="95"
   inkscape:export-ydpi="95">
  <defs
     id="defs7226">
    <filter
       style="color-interpolation-filters:sRGB;"
       inkscape:label="Drop Shadow"
       id="filter4157">
      <feFlood
         flood-opacity="0.498039"
         flood-color="rgb(0,0,0)"
         result="flood"
         id="feFlood4159" />
      <feComposite
         in="flood"
         in2="SourceGraphic"
         operator="in"
         result="composite1"
         id="feComposite4161" />
      <feGaussianBlur
         in="composite1"
         stdDeviation="3"
         result="blur"
         id="feGaussianBlur4163" />
      <feOffset
         dx="6"
         dy="6"
         result="offset"
         id="feOffset4165" />
      <feComposite
         in="SourceGraphic"
         in2="offset"
         operator="over"
         result="composite2"
         id="feComposite4167" />
    </filter>
  </defs>
  <sodipodi:namedview
     id="base"
     pagecolor="#ffffff"
     bordercolor="#666666"
     borderopacity="1.0"
     inkscape:pageopacity="0.0"
     inkscape:pageshadow="2"
     inkscape:zoom="4"
     inkscape:cx="82.125"
     inkscape:cy="-8.8770299"
     inkscape:document-units="px"
     inkscape:current-layer="g7807"
     showgrid="false"
     fit-margin-top="0"
     fit-margin-left="0"
     fit-margin-right="0"
     fit-margin-bottom="0"
     inkscape:window-width="1920"
     inkscape:window-height="1026"
     inkscape:window-x="1920"
     inkscape:window-y="24"
     inkscape:window-maximized="1" />
  <metadata
     id="metadata7229">
    <rdf:RDF>
      <cc:Work
         rdf:about="">
        <dc:format>image/svg+xml</dc:format>
        <dc:type
           rdf:resource="http://purl.org/dc/dcmitype/StillImage" />
        <dc:title></dc:title>
      </cc:Work>
    </rdf:RDF>
  </metadata>
  <g
     inkscape:label="Camada 1"
     inkscape:groupmode="layer"
     id="layer1"
     transform="translate(-157.40119,-326.15352)">
    <g
       id="g7807"
       transform="matrix(0.17741821,0,0,0.17741821,450.85577,412.33053)"
       style="stroke:#000000;stroke-opacity:1;stroke-width:1.12728;stroke-miterlimit:4;stroke-dasharray:none">
      <rect
         style="opacity:1;fill:none;fill-opacity:0.50588223;stroke:none;stroke-width:11.83644009;stroke-linecap:round;stroke-linejoin:round;stroke-miterlimit:4;stroke-dasharray:23.67288003, 23.67288003;stroke-dashoffset:0;stroke-opacity:1"
         id="rect4268"
         width="450.91199"
         height="281.82001"
         x="-1654.0273"
         y="-485.69064"
         inkscape:export-filename="/home/luzfcb/projetos/solar_gith/solar/media/servidor/path4266bbbb.png"
         inkscape:export-xdpi="95.625"
         inkscape:export-ydpi="95.625" />
      <g
         id="g4217"
         transform="matrix(2.4216285,0,0,2.4216285,2245.3104,975.71248)"
         inkscape:export-filename="/home/luzfcb/projetos/solar_gith/solar/media/servidor/path4266bbbb.png"
         inkscape:export-xdpi="95.625"
         inkscape:export-ydpi="95.625"
         style="filter:url(#filter4157)">
        <text
           xml:space="preserve"
           style="font-style:normal;font-weight:normal;font-size:16.61317062px;line-height:125%;font-family:sans-serif;letter-spacing:0px;word-spacing:0px;fill:#000000;fill-opacity:1;stroke:none;stroke-width:1px;stroke-linecap:butt;stroke-linejoin:miter;stroke-opacity:1"
           x="-1595.1875"
           y="-582.47791"
           id="text4145"
           sodipodi:linespacing="125%"><tspan
             sodipodi:role="line"
             x="-1595.1875"
             y="-582.47791"
             id="tspan4149"
             style="font-style:normal;font-variant:normal;font-weight:bold;font-stretch:normal;font-family:sans-serif;-inkscape-font-specification:'sans-serif Bold';fill:#ff0000">Defina</tspan><tspan
             sodipodi:role="line"
             x="-1595.1875"
             y="-561.71143"
             style="font-style:normal;font-variant:normal;font-weight:bold;font-stretch:normal;font-family:sans-serif;-inkscape-font-specification:'sans-serif Bold';fill:#ff0000"
             id="tspan4175">&quot;SIGLA_UF&quot; </tspan><tspan
             sodipodi:role="line"
             x="-1595.1875"
             y="-540.94501"
             style="font-style:normal;font-variant:normal;font-weight:bold;font-stretch:normal;font-family:sans-serif;-inkscape-font-specification:'sans-serif Bold';fill:#ff0000"
             id="tspan4153">no dict </tspan><tspan
             sodipodi:role="line"
             x="-1595.1875"
             y="-520.17853"
             style="font-style:normal;font-variant:normal;font-weight:bold;font-stretch:normal;font-family:sans-serif;-inkscape-font-specification:'sans-serif Bold';fill:#ff0000"
             id="tspan4151">DJDOCUMENT no</tspan><tspan
             sodipodi:role="line"
             x="-1595.1875"
             y="-499.41205"
             style="font-style:normal;font-variant:normal;font-weight:bold;font-stretch:normal;font-family:sans-serif;-inkscape-font-specification:'sans-serif Bold';fill:#ff0000"
             id="tspan4173">seu settings.py</tspan></text>
      </g>
      <path
         style="fill:#808080;stroke-width:0.3889116;stroke-miterlimit:4;stroke-dasharray:none;stroke:none"
         d="m -1646.518,-211.87912 c -0.6582,-0.35297 -1.6677,-1.22321 -2.2432,-1.93386 l -1.0464,-1.29208 -0.098,-8.01157 c -0.095,-7.76146 -0.074,-8.06009 0.6918,-9.56546 1.9015,-3.73635 6.4842,-4.49113 9.4234,-1.552 1.5339,1.53385 1.914,2.99026 1.9163,7.34351 l 0,3.54576 2.8539,0.0152 c 4.3408,0.0231 6.2249,0.89946 7.5608,3.5168 1.1884,2.32865 0.6759,5.07079 -1.2915,6.91035 -1.6171,1.51195 -2.5147,1.66516 -9.7566,1.66516 -5.977,0 -6.962,-0.0789 -8.0115,-0.64179 z m 35.4479,0.15972 c -3.4522,-1.5042 -4.6756,-6.09805 -2.4137,-9.06348 1.8531,-2.42952 1.5684,-2.38897 16.7762,-2.38897 13.1608,0 13.7087,0.0262 14.8737,0.71056 3.2862,1.93044 4.0686,6.26001 1.6326,9.03436 -1.9225,2.18972 -1.9327,2.19105 -16.5817,2.17607 -10.1605,-0.0104 -13.4859,-0.11944 -14.2871,-0.46854 z m 48.0905,-0.008 c -5.1564,-2.30159 -4.6343,-9.74983 0.7891,-11.25604 0.7737,-0.2149 6.1805,-0.35729 13.5669,-0.35729 7.3864,0 12.7932,0.14239 13.5669,0.35729 2.8965,0.80442 4.7217,3.69492 4.2633,6.75151 -0.1886,1.25758 -0.5593,1.92521 -1.7057,3.07155 -0.8703,0.87042 -1.9298,1.55773 -2.6111,1.69399 -0.6306,0.12611 -6.9256,0.22321 -13.989,0.21576 -9.9588,-0.0105 -13.0757,-0.11756 -13.8804,-0.47677 z m 47.6423,-0.24257 c -2.7069,-1.33988 -3.9276,-4.78977 -2.7187,-7.68315 0.6016,-1.43981 2.3005,-2.87233 3.9495,-3.33032 1.7873,-0.49639 25.4163,-0.47697 27.2149,0.0223 2.6998,0.74954 4.7121,3.92616 4.2037,6.636 -0.34,1.81234 -1.5911,3.44012 -3.3122,4.30964 -1.5174,0.76654 -1.7402,0.77834 -14.6992,0.77806 -12.7041,-2.6e-4 -13.2096,-0.0256 -14.638,-0.7326 z m 48.084,0 c -2.7273,-1.35001 -4.0523,-5.24545 -2.684,-7.8913 0.7008,-1.35522 2.3828,-2.69669 3.9149,-3.12217 1.722,-0.47825 25.4121,-0.47818 27.1342,8e-5 2.7356,0.7598 4.7916,3.95474 4.2843,6.65828 -0.34,1.81235 -1.591,3.44012 -3.3122,4.30965 -1.5173,0.76653 -1.7402,0.77833 -14.6992,0.77807 -12.7041,-2.7e-4 -13.2095,-0.0256 -14.638,-0.73261 z m 47.9749,-0.0715 c -1.9483,-1.02777 -3.0678,-2.91349 -3.0757,-5.18015 -0.01,-2.7619 1.7148,-5.01179 4.4157,-5.7619 1.7359,-0.4821 25.413,-0.47794 27.1512,0.005 0.7171,0.19913 1.8393,0.89765 2.494,1.55228 2.9129,2.91289 2.1555,7.54462 -1.5389,9.41095 -1.5175,0.76662 -1.7393,0.77833 -14.7312,0.77833 -13.1374,0 -13.1967,-0.003 -14.7151,-0.80428 z m 48.1992,0.0743 c -0.8105,-0.40118 -1.8115,-1.20404 -2.2246,-1.78415 -0.9149,-1.2848 -1.2413,-4.30266 -0.626,-5.78803 0.5811,-1.40293 2.4591,-2.99538 4.0552,-3.43863 1.7551,-0.48739 25.4167,-0.4881 27.1714,-7e-4 0.7171,0.19913 1.8394,0.89766 2.494,1.55228 2.9129,2.9129 2.1556,7.54462 -1.5388,9.41095 -1.5174,0.76654 -1.7402,0.77834 -14.6992,0.77807 -12.6875,-2.6e-4 -13.2112,-0.0264 -14.632,-0.72968 z m 48.1397,0.0708 c -1.9843,-0.90114 -3.0116,-2.47613 -3.1858,-4.88411 -0.2183,-3.01821 1.4325,-5.41599 4.2577,-6.18416 1.8383,-0.49982 25.4554,-0.51211 27.2485,-0.0141 2.8707,0.79723 4.8489,4.30763 4.0659,7.21538 -0.4858,1.80444 -1.5847,3.10615 -3.2669,3.87019 -1.2942,0.58779 -2.4985,0.64081 -14.5562,0.64081 -12.0808,0 -13.2601,-0.0522 -14.5632,-0.64395 z m 48.084,0 c -4.7823,-2.17187 -4.3365,-9.0367 0.7138,-10.98962 1.4989,-0.57967 25.6943,-0.61701 27.6115,-0.0426 5.1001,1.52803 5.631,8.83876 0.8011,11.03223 -1.3031,0.5918 -2.4824,0.64394 -14.5632,0.64394 -12.0809,0 -13.26,-0.0522 -14.5632,-0.64394 z m 47.9523,-0.1192 c -1.7984,-0.91902 -2.7066,-2.05711 -3.1264,-3.91847 -0.6666,-2.9545 1.2409,-6.26071 4.0642,-7.04477 0.717,-0.19913 2.5101,-0.36293 3.9847,-0.36399 l 2.6809,-0.002 0,-3.54577 c 0,-1.95016 0.1628,-4.12468 0.3593,-4.83225 1.3762,-4.95555 7.7985,-6.00287 10.7144,-1.74729 0.8576,1.2516 0.8589,1.26608 0.8589,9.80841 l 0,8.55497 -1.0464,1.29291 c -1.9564,2.41718 -2.5874,2.57652 -10.204,2.57652 -6.3328,0 -6.8613,-0.0496 -8.2875,-0.77834 z m -420.1111,-37.02004 c -0.8464,-0.48167 -1.6606,-1.34678 -2.162,-2.29725 -0.8011,-1.51846 -0.8043,-1.57772 -0.8043,-14.71513 0,-12.99195 0.012,-13.21374 0.7783,-14.73124 1.8664,-3.69437 6.4981,-4.45172 9.411,-1.53882 0.6546,0.65461 1.3531,1.77691 1.5523,2.49398 0.4826,1.7382 0.4868,25.4153 0,27.15117 -0.4255,1.53198 -1.767,3.21405 -3.1222,3.91486 -1.4676,0.75895 -4.0599,0.63178 -5.6579,-0.27757 z m 431.3468,0.1528 c -1.7029,-0.80579 -2.5193,-1.69503 -3.1311,-3.41052 -0.5886,-1.65039 -0.7098,-25.46194 -0.14,-27.51347 0.9722,-3.50049 4.7475,-5.35326 8.0387,-3.94503 1.3462,0.57598 2.839,2.11271 3.3397,3.43792 0.2366,0.62607 0.368,5.69277 0.368,14.18846 0,12.21037 -0.049,13.30559 -0.6419,14.41132 -1.5955,2.975 -4.9599,4.19104 -7.8334,2.83132 z m -430.5079,-47.70241 c -1.2781,-0.48026 -2.5532,-1.69723 -3.1461,-3.0025 -0.5918,-1.30311 -0.6439,-2.48234 -0.6439,-14.5632 0,-12.17497 0.049,-13.25212 0.6571,-14.5926 1.8613,-4.09958 7.8201,-4.49519 10.3418,-0.6866 l 0.9204,1.3902 0.1048,12.99824 c 0.1257,15.57857 0.039,16.08518 -3.0786,17.98575 -1.1462,0.69876 -3.8834,0.94868 -5.1555,0.47071 z m 430.3346,-0.42162 c -0.6661,-0.35236 -1.4982,-0.95784 -1.8491,-1.34553 -1.4696,-1.62394 -1.5795,-2.73513 -1.5795,-15.97152 0,-13.23694 0.1097,-14.34683 1.5799,-15.97242 0.9647,-1.06671 3.0556,-2.01586 4.4408,-2.01586 2.385,0 4.8506,1.69649 5.6885,3.91422 0.5931,1.56988 0.4962,26.9418 -0.1083,28.35472 -1.3592,3.17648 -5.2057,4.60565 -8.1723,3.03639 z m -429.5166,-47.39305 c -1.6726,-0.40421 -3.2547,-1.71003 -3.9641,-3.27187 -0.5918,-1.30313 -0.6439,-2.48235 -0.6439,-14.56322 0,-12.08086 0.052,-13.26009 0.6439,-14.56321 0.9011,-1.98424 2.4762,-3.01155 4.8842,-3.18573 2.1787,-0.15759 3.5523,0.36492 4.9653,1.88877 1.5311,1.65122 1.6427,2.87161 1.5307,16.75092 l -0.1048,12.99824 -0.9204,1.39021 c -1.3447,2.03103 -4.0634,3.11832 -6.3909,2.55589 z m 429.6727,-0.50635 c -1.3811,-0.60156 -2.8071,-2.32604 -3.2539,-3.93475 -0.2149,-0.77379 -0.3573,-6.18057 -0.3573,-13.56695 0,-7.38638 0.1424,-12.79316 0.3573,-13.56695 1.1264,-4.05595 6.172,-5.68884 9.3878,-3.03815 2.3671,1.95116 2.3586,1.89111 2.3586,16.58201 0,14.33055 -0.026,14.55077 -1.9466,16.3462 -1.7825,1.66663 -4.3599,2.1307 -6.5459,1.17859 z m -430.2542,-47.73708 c -1.732,-0.63824 -2.6159,-1.45841 -3.3911,-3.1467 -0.5808,-1.26477 -0.6361,-2.5165 -0.643,-14.56108 -0.01,-13.13063 0,-13.18275 0.7967,-14.70196 1.0278,-1.94822 2.9135,-3.06782 5.1802,-3.07559 1.9521,-0.007 3.2782,0.60213 4.516,2.07319 1.543,1.83367 1.6454,2.94663 1.5363,16.69656 -0.1016,12.75001 -0.1101,12.88963 -0.898,14.15681 -1.5033,2.41766 -4.5242,3.50683 -7.0971,2.55877 z m 430.2542,-0.34698 c -1.3811,-0.60154 -2.8071,-2.32603 -3.2539,-3.93474 -0.4964,-1.78734 -0.477,-25.41631 0.022,-27.21489 0.7495,-2.69978 3.9262,-4.71207 6.6359,-4.20371 1.8124,0.34001 3.4402,1.59106 4.3097,3.31227 0.7665,1.51717 0.7784,1.74131 0.7784,14.67643 0,12.62935 -0.029,13.19346 -0.7252,14.63355 -1.3212,2.72946 -4.8901,3.98432 -7.7673,2.73109 z m -430.6637,-47.88318 c -1.6519,-0.78121 -2.3867,-1.55431 -3.1001,-3.26159 -0.4494,-1.07539 -0.5321,-3.46862 -0.5321,-15.38655 0,-15.82957 -0.06,-15.41837 2.5761,-17.55291 l 1.2924,-1.04645 13.2001,-0.10361 c 7.2601,-0.057 13.7094,-0.0104 14.3318,0.10355 1.4077,0.25765 3.4887,2.04522 4.1088,3.5293 1.3877,3.32131 -0.4562,7.07271 -3.954,8.04413 -0.7333,0.20368 -5.1826,0.35812 -10.3489,0.35923 l -9.0623,0.002 -0.1048,10.81026 c -0.1025,10.58941 -0.1209,10.8364 -0.9004,12.09005 -1.6013,2.57514 -4.9124,3.63939 -7.5066,2.41266 z m 430.3349,-0.3579 c -1.4444,-0.89221 -2.2357,-1.85771 -2.7851,-3.39814 -0.5926,-1.66163 -0.7096,-25.46275 -0.1352,-27.53074 0.1991,-0.71706 0.8976,-1.83935 1.5522,-2.49398 2.9129,-2.91289 7.5446,-2.15555 9.411,1.53882 0.7665,1.51718 0.7784,1.74132 0.7784,14.67643 0,12.62936 -0.029,13.19347 -0.7252,14.63355 -1.3802,2.85132 -5.5176,4.16675 -8.0961,2.57406 z m -381.8413,-25.4483 c -0.726,-0.26333 -1.6432,-0.766 -2.038,-1.11705 -0.9792,-0.8707 -1.987,-3.16322 -1.9961,-4.54107 -0.015,-2.27503 1.7246,-4.7638 3.9066,-5.58822 1.5503,-0.58575 26.9332,-0.49675 28.3601,0.0994 3.5111,1.46703 4.7766,6.08051 2.4901,9.07819 -1.8374,2.409 -1.6474,2.38015 -16.2573,2.46824 -10.484,0.0632 -13.4125,-0.0177 -14.4654,-0.39952 z m 48.0741,-0.0114 c -4.2957,-1.53164 -5.4078,-6.83129 -2.0853,-9.93775 0.5466,-0.51111 1.4321,-1.09486 1.9677,-1.29723 1.5699,-0.59314 26.9418,-0.49619 28.3548,0.10836 3.1736,1.35791 4.5837,5.09919 3.0525,8.09922 -0.8361,1.63812 -1.7334,2.44115 -3.3867,3.0308 -1.9193,0.6845 -25.9818,0.68156 -27.903,-0.003 z m 48.0841,0.008 c -4.3239,-1.56759 -5.4257,-6.82246 -2.0854,-9.94571 0.5467,-0.5111 1.4322,-1.09486 1.9677,-1.29723 0.6258,-0.2364 5.6691,-0.36793 14.1078,-0.36793 14.5254,0 14.5535,0.004 16.4727,2.18961 2.4359,2.77435 1.6535,7.10392 -1.6326,9.03436 -1.1558,0.67896 -1.7941,0.71408 -14.3549,0.78982 -10.5275,0.0634 -13.4101,-0.0168 -14.4753,-0.40292 z m 48.0841,-0.008 c -3.3267,-1.1861 -4.9067,-4.68838 -3.5645,-7.9007 0.6195,-1.4829 2.7001,-3.271 4.1088,-3.53121 0.6224,-0.11498 7.0594,-0.16157 14.3043,-0.10355 l 13.1728,0.10552 1.3074,0.99762 c 1.4413,1.09978 2.6006,3.27665 2.6006,4.88315 0,1.28706 -1.0318,3.59278 -1.9886,4.44348 -1.6552,1.47178 -2.7491,1.5799 -15.9845,1.5799 -9.8174,0 -12.9222,-0.1055 -13.9563,-0.47421 z m 48.0839,0 c -4.9629,-1.76957 -5.4757,-8.62115 -0.8141,-10.87783 1.4401,-0.69714 2.0042,-0.72508 14.6336,-0.72508 12.9351,0 13.1592,0.0119 14.6763,0.77834 1.7213,0.86953 2.9723,2.4973 3.3123,4.30965 0.5084,2.70983 -1.5039,5.88644 -4.2036,6.63599 -2.1381,0.59359 -25.8922,0.4894 -27.6045,-0.12107 z m 48.0841,0 c -2.5755,-0.9183 -4.0319,-2.93678 -4.0319,-5.58808 0,-2.26503 1.2649,-4.3444 3.2178,-5.28975 1.4401,-0.69714 2.0042,-0.72508 14.6335,-0.72508 12.9351,0 13.1592,0.0119 14.6764,0.77834 1.6926,0.85508 2.9715,2.49309 3.2957,4.22119 0.5169,2.75552 -1.5261,5.9853 -4.2679,6.74673 -2.0612,0.57246 -25.8636,0.44849 -27.5236,-0.14335 z m 48.0841,0 c -2.5895,-0.92329 -4.0353,-2.94095 -4.0262,-5.61847 0.01,-2.26666 1.1274,-4.15238 3.0756,-5.18015 1.5185,-0.80105 1.5777,-0.80429 14.7151,-0.80429 12.992,0 13.2138,0.0117 14.7313,0.77834 3.6943,1.86634 4.4516,6.49805 1.5388,9.41095 -0.6546,0.65462 -1.7769,1.35315 -2.4939,1.55228 -2.0775,0.57692 -25.8697,0.45712 -27.5407,-0.13866 z m 48.0841,0 c -2.7971,-0.99727 -4.179,-3.10901 -3.9655,-6.05966 0.174,-2.40597 1.1054,-3.82777 3.1586,-4.82171 1.4307,-0.6926 2.0173,-0.72154 14.6262,-0.72154 12.9351,0 13.1593,0.0119 14.6764,0.77834 3.6944,1.86634 4.4517,6.49805 1.5388,9.41095 -0.6546,0.65462 -1.7769,1.35315 -2.494,1.55228 -2.0774,0.57692 -25.8695,0.45712 -27.5405,-0.13866 z"
         id="path4266"
         inkscape:connector-curvature="0"
         inkscape:export-filename="/home/luzfcb/projetos/solar_gith/solar/media/servidor/path4266bbbb.png"
         inkscape:export-xdpi="95.625"
         inkscape:export-ydpi="95.625" />
    </g>
  </g>
</svg>
