<?xml version="1.0" encoding="UTF-8" standalone="no"?>
<!-- Created with Inkscape (http://www.inkscape.org/) -->

<svg
   xmlns:dc="http://purl.org/dc/elements/1.1/"
   xmlns:cc="http://creativecommons.org/ns#"
   xmlns:rdf="http://www.w3.org/1999/02/22-rdf-syntax-ns#"
   xmlns:svg="http://www.w3.org/2000/svg"
   xmlns="http://www.w3.org/2000/svg"
   xmlns:xlink="http://www.w3.org/1999/xlink"
   xmlns:sodipodi="http://sodipodi.sourceforge.net/DTD/sodipodi-0.dtd"
   xmlns:inkscape="http://www.inkscape.org/namespaces/inkscape"
   width="127.25739mm"
   height="79.557014mm"
   viewBox="0 0 450.91199 281.89493"
   id="svg5852"
   version="1.1"
   inkscape:version="0.91 r13725"
   sodipodi:docname="assinatura_digital.svg">
  <defs
     id="defs5854">
    <linearGradient
       inkscape:collect="always"
       id="linearGradient5796">
      <stop
         style="stop-color:#000000;stop-opacity:1;"
         offset="0"
         id="stop5798" />
      <stop
         style="stop-color:#000000;stop-opacity:0;"
         offset="1"
         id="stop5800" />
    </linearGradient>
    <radialGradient
       inkscape:collect="always"
       xlink:href="#linearGradient5796"
       id="radialGradient5804-4"
       cx="413.31979"
       cy="387.65228"
       fx="413.31979"
       fy="387.65228"
       r="66.254723"
       gradientTransform="matrix(2.4972141,-0.0059628,0.00453692,1.9000531,-1393.0568,-337.94504)"
       gradientUnits="userSpaceOnUse" />
    <radialGradient
       inkscape:collect="always"
       xlink:href="#linearGradient5796"
       id="radialGradient4340-5"
       cx="289.62543"
       cy="382.37595"
       fx="289.62543"
       fy="382.37595"
       r="225.45599"
       gradientTransform="matrix(-0.00249685,-1.1928441,3.0014956,-0.00450694,-1629.5755,717.65384)"
       gradientUnits="userSpaceOnUse" />
  </defs>
  <sodipodi:namedview
     id="base"
     pagecolor="#ffffff"
     bordercolor="#666666"
     borderopacity="1.0"
     inkscape:pageopacity="0.0"
     inkscape:pageshadow="2"
     inkscape:zoom="0.49497475"
     inkscape:cx="-691.59918"
     inkscape:cy="-283.54061"
     inkscape:document-units="px"
     inkscape:current-layer="layer1"
     showgrid="false"
     inkscape:window-width="1855"
     inkscape:window-height="1026"
     inkscape:window-x="65"
     inkscape:window-y="24"
     inkscape:window-maximized="1"
     fit-margin-top="0"
     fit-margin-left="0"
     fit-margin-right="0"
     fit-margin-bottom="0"
     showguides="true"
     inkscape:guide-bbox="true">
    <sodipodi:guide
       position="-871.76159,141.42136"
       orientation="1,0"
       id="guide7161" />
    <sodipodi:guide
       position="-421.23359,115.15739"
       orientation="1,0"
       id="guide7163" />
  </sodipodi:namedview>
  <metadata
     id="metadata5857">
    <rdf:RDF>
      <cc:Work
         rdf:about="">
        <dc:format>image/svg+xml</dc:format>
        <dc:type
           rdf:resource="http://purl.org/dc/dcmitype/StillImage" />
        <dc:title></dc:title>
      </cc:Work>
    </rdf:RDF>
  </metadata>
  <g
     inkscape:label="Camada 1"
     inkscape:groupmode="layer"
     id="layer1"
     transform="translate(-163.11543,-297.12903)">
    <g
       id="g7165"
       transform="translate(871.17027,67.623951)">
      <rect
         inkscape:export-ydpi="119"
         inkscape:export-xdpi="119"
         y="237.07127"
         x="-700.48865"
         height="266.76254"
         width="435.7796"
         id="rect4207-9"
         style="opacity:1;fill:none;fill-opacity:1;stroke:url(#radialGradient4340-5);stroke-width:15.13239002;stroke-linecap:round;stroke-linejoin:round;stroke-miterlimit:4;stroke-dasharray:15.13238953, 30.26477906;stroke-dashoffset:0;stroke-opacity:1" />
      <path
         inkscape:export-ydpi="119"
         inkscape:export-xdpi="119"
         inkscape:connector-curvature="0"
         id="path4220-0"
         d="m -365.42439,466.20834 c -0.27063,-0.0486 -2.15278,-0.19123 -4.18252,-0.31702 -12.78215,-0.7921 -26.27953,-3.45569 -38.38075,-7.57406 -3.84647,-1.30907 -4.74122,-1.81135 -5.78171,-3.24573 l -0.8611,-1.18708 -0.0653,-28.10565 c -0.0429,-18.51761 0.02,-28.39432 0.18473,-28.95184 0.28562,-0.96675 1.93646,-2.78292 2.97418,-3.272 0.38501,-0.18148 1.92551,-0.72339 3.42332,-1.20426 1.49783,-0.48087 2.98653,-1.03149 3.30823,-1.22361 l 0.58492,-0.34933 0.12158,-14.19187 c 0.12838,-14.98997 0.14523,-15.23001 1.38725,-19.74863 2.78677,-10.13869 10.19438,-19.24739 20.18803,-24.82405 4.82051,-2.68993 9.7851,-4.38464 15.86896,-5.41703 3.84575,-0.65258 10.80769,-0.70499 14.39278,-0.10826 10.23517,1.70339 17.97218,5.30438 24.84701,11.56442 5.82126,5.30068 9.89938,11.77907 11.82507,18.785 1.242,4.51861 1.25887,4.75865 1.38725,19.74862 l 0.12158,14.19188 0.55343,0.33052 c 0.3044,0.18178 1.87738,0.76908 3.49552,1.3051 1.61815,0.53604 3.16475,1.08323 3.4369,1.21599 0.93572,0.45642 2.52421,2.24786 2.78953,3.14591 0.18468,0.62512 0.24543,9.43536 0.20002,29.00352 l -0.0653,28.10564 -0.86109,1.18708 c -1.04051,1.43438 -1.93524,1.93666 -5.78173,3.24573 -11.71291,3.98624 -24.47528,6.55038 -37.76565,7.5877 -2.89217,0.22574 -16.45596,0.46298 -17.34516,0.30338 z m 8.73408,-18.41485 c 1.22177,-0.45777 2.42542,-1.57437 3.10311,-2.87868 l 0.58253,-1.12121 0.003,-9.78006 0.003,-9.78005 1.00346,-0.63381 c 3.61022,-2.28031 5.5376,-6.27974 4.9518,-10.27534 -1.34433,-9.16947 -13.70412,-12.96887 -20.77208,-6.38531 -5.1758,4.82106 -4.66452,12.207 1.13408,16.38355 l 1.2582,0.90624 0.123,10.00662 c 0.11974,9.74015 0.13731,10.03094 0.65876,10.9189 0.95127,1.6198 2.45316,2.62136 4.63089,3.08823 0.69484,0.14897 2.30706,-0.069 3.32142,-0.44908 z m -28.99716,-61.04872 c 15.99534,-2.97225 37.19288,-2.97338 53.07371,-0.003 1.26657,0.23691 2.45676,0.43075 2.64482,0.43075 0.28747,0 0.34197,-1.82579 0.34197,-11.45714 0,-10.69284 -0.034,-11.60866 -0.50784,-13.72852 -0.27934,-1.24926 -0.73051,-2.87965 -1.00262,-3.62307 -0.74036,-2.02274 -2.54383,-5.17142 -4.06941,-7.10477 -1.27746,-1.61888 -4.63961,-4.81785 -5.85054,-5.56656 -5.03289,-3.1118 -7.68571,-4.19703 -12.4034,-5.07408 -6.8415,-1.27189 -13.88462,-0.25433 -20.08261,2.90143 -2.41707,1.23069 -3.5682,2.01767 -5.95408,4.07061 -4.80106,4.13104 -7.73575,9.21574 -8.92372,15.4613 -0.15094,0.79363 -0.25308,5.92899 -0.25308,12.72568 0,9.57841 0.0546,11.39513 0.34197,11.39513 0.18807,0 1.37825,-0.19256 2.64483,-0.42791 z"
         style="opacity:1;fill:none;fill-opacity:0.50196078;stroke:url(#radialGradient5804-4);stroke-width:5.38372278;stroke-linecap:round;stroke-linejoin:round;stroke-miterlimit:4;stroke-dasharray:none" />
      <text
         inkscape:export-ydpi="119"
         inkscape:export-xdpi="119"
         sodipodi:linespacing="104%"
         id="text4228-9"
         y="290.56973"
         x="-558.75946"
         style="font-style:normal;font-weight:normal;font-size:63.70900726px;line-height:103.99999619%;font-family:sans-serif;letter-spacing:0px;word-spacing:0px;fill:#666666;fill-opacity:1;stroke:none;stroke-width:1px;stroke-linecap:butt;stroke-linejoin:miter;stroke-opacity:1"
         xml:space="preserve"><tspan
           style="font-style:normal;font-variant:normal;font-weight:normal;font-stretch:normal;font-family:Ubuntu;-inkscape-font-specification:Ubuntu;text-align:center;text-anchor:middle;fill:#666666"
           y="290.56973"
           x="-558.75946"
           id="tspan4230-6"
           sodipodi:role="line" /><tspan
           id="tspan4236-9"
           style="font-style:normal;font-variant:normal;font-weight:normal;font-stretch:condensed;font-size:90px;line-height:103.99999619%;font-family:Impact;-inkscape-font-specification:'Impact Condensed';text-align:center;text-anchor:middle;fill:#666666"
           y="380.49606"
           x="-558.75946"
           sodipodi:role="line">SOLAR</tspan><tspan
           id="tspan4240-2"
           style="font-style:normal;font-variant:normal;font-weight:500;font-stretch:normal;font-size:46.25px;line-height:103.99999619%;font-family:Ubuntu;-inkscape-font-specification:'Ubuntu Medium';text-align:center;text-anchor:middle;fill:#666666"
           y="435.69891"
           x="-558.75946"
           sodipodi:role="line">assinatura</tspan><tspan
           id="tspan4242-3"
           style="font-style:normal;font-variant:normal;font-weight:500;font-stretch:normal;font-size:46.25px;line-height:103.99999619%;font-family:Ubuntu;-inkscape-font-specification:'Ubuntu Medium';text-align:center;text-anchor:middle;fill:#666666"
           y="483.79892"
           x="-558.75946"
           sodipodi:role="line">eletrônica</tspan></text>
      <text
         inkscape:export-ydpi="119"
         inkscape:export-xdpi="119"
         sodipodi:linespacing="125%"
         id="text4228-9-7"
         y="287.71259"
         x="-483.2637"
         style="font-style:normal;font-weight:normal;font-size:63.70900726px;line-height:125%;font-family:sans-serif;letter-spacing:0px;word-spacing:0px;fill:#666666;fill-opacity:1;stroke:none;stroke-width:1px;stroke-linecap:butt;stroke-linejoin:miter;stroke-opacity:1"
         xml:space="preserve"><tspan
           id="tspan4242-3-8"
           style="font-style:normal;font-variant:normal;font-weight:500;font-stretch:normal;font-size:46.25px;font-family:Ubuntu;-inkscape-font-specification:'Ubuntu Medium';text-align:center;text-anchor:middle;fill:#666666"
           y="287.71259"
           x="-483.2637"
           sodipodi:role="line">DPE-TO</tspan></text>
    </g>
  </g>
</svg>
