<?xml version="1.0" encoding="UTF-8" standalone="no"?>
<!-- Created with Inkscape (http://www.inkscape.org/) -->

<svg
   xmlns:dc="http://purl.org/dc/elements/1.1/"
   xmlns:cc="http://creativecommons.org/ns#"
   xmlns:rdf="http://www.w3.org/1999/02/22-rdf-syntax-ns#"
   xmlns:svg="http://www.w3.org/2000/svg"
   xmlns="http://www.w3.org/2000/svg"
   xmlns:sodipodi="http://sodipodi.sourceforge.net/DTD/sodipodi-0.dtd"
   xmlns:inkscape="http://www.inkscape.org/namespaces/inkscape"
   width="22.577778mm"
   height="14.114863mm"
   viewBox="0 0 80 50.013295"
   id="svg7224"
   version="1.1"
   inkscape:version="0.91 r13725"
   sodipodi:docname="assinatura_digital2_inkscape.svg">
  <defs
     id="defs7226" />
  <sodipodi:namedview
     id="base"
     pagecolor="#ffffff"
     bordercolor="#666666"
     borderopacity="1.0"
     inkscape:pageopacity="0.0"
     inkscape:pageshadow="2"
     inkscape:zoom="5.6"
     inkscape:cx="5.2695424"
     inkscape:cy="8.2116978"
     inkscape:document-units="px"
     inkscape:current-layer="g7807"
     showgrid="false"
     fit-margin-top="0"
     fit-margin-left="0"
     fit-margin-right="0"
     fit-margin-bottom="0"
     inkscape:window-width="1855"
     inkscape:window-height="1026"
     inkscape:window-x="65"
     inkscape:window-y="24"
     inkscape:window-maximized="1" />
  <metadata
     id="metadata7229">
    <rdf:RDF>
      <cc:Work
         rdf:about="">
        <dc:format>image/svg+xml</dc:format>
        <dc:type
           rdf:resource="http://purl.org/dc/dcmitype/StillImage" />
        <dc:title />
      </cc:Work>
    </rdf:RDF>
  </metadata>
  <g
     inkscape:label="Camada 1"
     inkscape:groupmode="layer"
     id="layer1"
     transform="translate(-157.40119,-326.15352)">
    <g
       id="g7807"
       transform="matrix(0.17741821,0,0,0.17741821,450.85577,412.33053)">
      <rect
         style="opacity:1;fill:none;fill-opacity:1;stroke:#666666;stroke-width:15.13239002;stroke-linecap:round;stroke-linejoin:round;stroke-miterlimit:4;stroke-dasharray:15.13238953, 30.26477905999999862;stroke-dashoffset:0;stroke-opacity:1"
         id="rect4207-9"
         width="435.7796"
         height="266.76254"
         x="-1646.4612"
         y="-478.16193"
         inkscape:export-xdpi="119"
         inkscape:export-ydpi="119"
         inkscape:export-filename="/home/luzfcb/projetos/solar_gith/solar/media/servidor/rect4207-9.png" />
      <path
         style="opacity:1;fill:none;fill-opacity:0.50196078;stroke:#000000;stroke-width:5.38372278;stroke-linecap:round;stroke-linejoin:round;stroke-miterlimit:4;stroke-dasharray:none;stroke-opacity:1"
         d="m -1311.397,-249.02486 c -0.2706,-0.0486 -2.1528,-0.19123 -4.1825,-0.31702 -12.7821,-0.7921 -26.2795,-3.45569 -38.3807,-7.57406 -3.8465,-1.30907 -4.7413,-1.81135 -5.7818,-3.24573 l -0.8611,-1.18708 -0.065,-28.10565 c -0.043,-18.51761 0.02,-28.39432 0.1848,-28.95184 0.2856,-0.96675 1.9364,-2.78292 2.9742,-3.272 0.385,-0.18148 1.9255,-0.72339 3.4233,-1.20426 1.4978,-0.48087 2.9865,-1.03149 3.3082,-1.22361 l 0.5849,-0.34933 0.1216,-14.19187 c 0.1284,-14.98997 0.1452,-15.23001 1.3873,-19.74863 2.7867,-10.13869 10.1943,-19.24739 20.188,-24.82405 4.8205,-2.68993 9.7851,-4.38464 15.8689,-5.41703 3.8458,-0.65258 10.8077,-0.70499 14.3928,-0.10826 10.2352,1.70339 17.9722,5.30438 24.847,11.56442 5.8213,5.30068 9.8994,11.77907 11.8251,18.785 1.242,4.51861 1.2589,4.75865 1.3873,19.74862 l 0.1215,14.19188 0.5535,0.33052 c 0.3044,0.18178 1.8773,0.76908 3.4955,1.3051 1.6181,0.53604 3.1647,1.08323 3.4369,1.21599 0.9357,0.45642 2.5242,2.24786 2.7895,3.14591 0.1847,0.62512 0.2454,9.43536 0.2,29.00352 l -0.065,28.10564 -0.8611,1.18708 c -1.0405,1.43438 -1.9352,1.93666 -5.7817,3.24573 -11.7129,3.98624 -24.4753,6.55038 -37.7656,7.5877 -2.8922,0.22574 -16.456,0.46298 -17.3452,0.30338 z m 8.7341,-18.41485 c 1.2218,-0.45777 2.4254,-1.57437 3.1031,-2.87868 l 0.5825,-1.12121 0,-9.78006 0,-9.78005 1.0035,-0.63381 c 3.6102,-2.28031 5.5376,-6.27974 4.9518,-10.27534 -1.3443,-9.16947 -13.7041,-12.96887 -20.7721,-6.38531 -5.1758,4.82106 -4.6645,12.207 1.1341,16.38355 l 1.2582,0.90624 0.123,10.00662 c 0.1197,9.74015 0.1373,10.03094 0.6588,10.9189 0.9512,1.6198 2.4531,2.62136 4.6309,3.08823 0.6948,0.14897 2.307,-0.069 3.3214,-0.44908 z m -28.9972,-61.04872 c 15.9954,-2.97225 37.1929,-2.97338 53.0738,-0.003 1.2665,0.23691 2.4567,0.43075 2.6448,0.43075 0.2874,0 0.3419,-1.82579 0.3419,-11.45714 0,-10.69284 -0.034,-11.60866 -0.5078,-13.72852 -0.2793,-1.24926 -0.7305,-2.87965 -1.0026,-3.62307 -0.7404,-2.02274 -2.5438,-5.17142 -4.0694,-7.10477 -1.2775,-1.61888 -4.6396,-4.81785 -5.8506,-5.56656 -5.0329,-3.1118 -7.6857,-4.19703 -12.4034,-5.07408 -6.8415,-1.27189 -13.8846,-0.25433 -20.0826,2.90143 -2.417,1.23069 -3.5682,2.01767 -5.9541,4.07061 -4.801,4.13104 -7.7357,9.21574 -8.9237,15.4613 -0.1509,0.79363 -0.2531,5.92899 -0.2531,12.72568 0,9.57841 0.055,11.39513 0.342,11.39513 0.1881,0 1.3783,-0.19256 2.6448,-0.42791 z"
         id="path4220-0"
         inkscape:connector-curvature="0"
         inkscape:export-xdpi="119"
         inkscape:export-ydpi="119"
         inkscape:export-filename="/home/luzfcb/projetos/solar_gith/solar/media/servidor/rect4207-9.png" />
      <text
         xml:space="preserve"
         style="font-style:normal;font-weight:normal;font-size:63.70900726px;line-height:103.99999619%;font-family:sans-serif;letter-spacing:0px;word-spacing:0px;fill:#666666;fill-opacity:1;stroke:#000000;stroke-width:1px;stroke-linecap:butt;stroke-linejoin:miter;stroke-opacity:1;"
         x="-1504.7321"
         y="-424.66345"
         id="text4228-9"
         sodipodi:linespacing="104%"
         inkscape:export-xdpi="119"
         inkscape:export-ydpi="119"
         inkscape:export-filename="/home/luzfcb/projetos/solar_gith/solar/media/servidor/rect4207-9.png"><tspan
           sodipodi:role="line"
           id="tspan4230-6"
           x="-1504.7321"
           y="-424.66345"
           style="font-style:normal;font-variant:normal;font-weight:normal;font-stretch:normal;font-family:Ubuntu;-inkscape-font-specification:Ubuntu;text-align:center;text-anchor:middle;fill:#666666;stroke:#000000;stroke-opacity:1;" /><tspan
           sodipodi:role="line"
           x="-1504.7321"
           y="-334.73712"
           style="font-style:normal;font-variant:normal;font-weight:normal;font-stretch:condensed;font-size:90px;line-height:103.99999619%;font-family:Impact;-inkscape-font-specification:'Impact Condensed';text-align:center;text-anchor:middle;fill:#666666;stroke:#000000;stroke-opacity:1;"
           id="tspan4236-9">SOLAR</tspan><tspan
           sodipodi:role="line"
           x="-1504.7321"
           y="-279.53427"
           style="font-style:normal;font-variant:normal;font-weight:500;font-stretch:normal;font-size:46.25px;line-height:103.99999619%;font-family:Ubuntu;-inkscape-font-specification:'Ubuntu Medium';text-align:center;text-anchor:middle;fill:#666666;stroke:#000000;stroke-opacity:1;"
           id="tspan4240-2">assinatura</tspan><tspan
           sodipodi:role="line"
           x="-1504.7321"
           y="-231.43427"
           style="font-style:normal;font-variant:normal;font-weight:500;font-stretch:normal;font-size:46.25px;line-height:103.99999619%;font-family:Ubuntu;-inkscape-font-specification:'Ubuntu Medium';text-align:center;text-anchor:middle;fill:#666666;stroke:#000000;stroke-opacity:1;"
           id="tspan4242-3">eletrônica</tspan></text>
      <text
         xml:space="preserve"
         style="font-style:normal;font-weight:normal;font-size:63.70900726px;line-height:125%;font-family:sans-serif;letter-spacing:0px;word-spacing:0px;fill:#666666;fill-opacity:1;stroke:#000000;stroke-width:1px;stroke-linecap:butt;stroke-linejoin:miter;stroke-opacity:1;"
         x="-1429.2363"
         y="-427.5206"
         id="text4228-9-7"
         sodipodi:linespacing="125%"
         inkscape:export-xdpi="119"
         inkscape:export-ydpi="119"
         inkscape:export-filename="/home/luzfcb/projetos/solar_gith/solar/media/servidor/rect4207-9.png"><tspan
           sodipodi:role="line"
           x="-1429.2363"
           y="-427.5206"
           style="font-style:normal;font-variant:normal;font-weight:500;font-stretch:normal;font-size:46.25px;font-family:Ubuntu;-inkscape-font-specification:'Ubuntu Medium';text-align:center;text-anchor:middle;fill:#666666;stroke:#000000;stroke-opacity:1;"
           id="tspan4242-3-8">DPE-TO</tspan></text>
    </g>
  </g>
</svg>
